<?xml version="1.0" encoding="UTF-8"?>
<svg id="Layer_2" data-name="Layer 2" xmlns="http://www.w3.org/2000/svg" viewBox="0 0 239.32 259.08">
  <defs>
    <style>
      .cls-1 {
        fill: #fff;
      }

      .cls-2 {
        fill: #d8d8d8;
      }

      .cls-3 {
        fill: #cf2027;
      }

      .cls-4 {
        fill: #0d0d0d;
      }
    </style>
  </defs>
  <g id="Layer_1-2" data-name="Layer 1">
    <g id="_3w8Bbv" data-name="3w8Bbv">
      <g>
        <g>
          <path class="cls-3" d="m37.44,256.08c-7.85,0-14.02-2.55-18.84-7.79-4.03-4.38-6.18-9.83-6.4-16.21-.1-2.95-.08-5.95-.05-8.84,0-.59,0-1.19.01-1.78-4.68-1.85-7.61-5.16-8.72-9.87-.27-1.13-.39-2.08-.39-2.99,0-13.6-.01-27.2-.03-40.79-.03-42.85-.07-87.16.14-130.75.05-11.38,5.73-21.14,16.41-28.21,5.86-3.88,12.56-5.85,19.89-5.85,18.28.02,36.53.02,54.77.02h30.42c28.13,0,51.78,0,75.73.05,17.76.03,33.04,13.22,35.53,30.67.24,1.65.36,3.24.36,4.71,0,17.88,0,35.76,0,53.64,0,38.07,0,77.43.05,116.15,0,5.89-4.37,11.64-9.62,13.37,0,.14,0,.28,0,.42-.04,1.91-.09,3.72.07,5.45.76,8.41-1.36,15.63-6.15,20.87-4.55,4.98-11.3,7.72-19.01,7.72-1.04,0-2.1-.05-3.17-.15-4.02-.37-8.28-1.04-12.18-3.46-6.65-4.14-10.44-10.15-10.96-17.4-.27-3.69-.2-7.42-.14-11.04.01-.62.02-1.23.03-1.85h-110.9v.74c0,2.82,0,5.62,0,8.41.03,12.7-8.04,22.43-20.07,24.21-2.46.37-4.68.54-6.78.54Zm159.24-102.45c-4.85,0-9.32,1.82-12.6,5.12-3.21,3.23-4.96,7.63-4.92,12.38.08,9.5,7.46,16.88,17.17,17.16,9.32,0,17.26-8.04,17.3-17.55.02-4.27-1.87-8.62-5.17-11.94-3.27-3.28-7.56-5.17-11.77-5.17v-3s-.01,3-.01,3Zm-153.54.01c-8.57.05-17.46,6.48-17.5,17.15-.02,4.66,1.76,9.01,4.99,12.26,3.31,3.32,7.91,5.23,12.62,5.23,4.51,0,8.77-1.8,12.01-5.08,3.25-3.28,5.03-7.61,5.03-12.18,0-9.58-7.66-17.38-17.06-17.38h-.1Zm109.87,24.68c.15,0,.3,0,.45-.02,1.16-.11,2.17-.62,2.83-1.43.39-.48.83-1.28.72-2.38-.17-1.63-1.9-2.77-4.21-2.77-4.8,0-9.61-.01-14.41-.01h-45.16c-.8,0-1.59,0-2.39,0-.78,0-1.57-.01-2.35-.01-.99,0-1.98,0-2.96.04-1.82.06-3.41,1.16-3.7,2.56-.29,1.42.53,2.88,1.94,3.47.78.33,1.86.51,3.03.51,13.73.03,27.45.03,41.17.03h24.25s.78,0,.78,0ZM34.01,42.73c-5.18,0-8.94,3.8-8.94,9.04,0,6.16.01,12.32.03,18.47.04,14.99.08,30.49-.13,45.74-.04,3.1.94,5.83,2.77,7.69,1.79,1.81,4.34,2.77,7.4,2.77h.16c10.95-.12,22.93-.18,37.73-.18,7.74,0,15.47.01,23.21.03,7.73.01,15.47.03,23.2.03h.21c7.5,0,15.01,0,22.51-.01,7.5,0,15.01-.02,22.51-.02,16.26,0,28.79.04,40.62.12h0c2.38,0,4.68-.98,6.37-2.68,1.2-1.2,2.62-3.3,2.61-6.48-.05-15.38-.04-31.01-.03-46.13,0-6.38,0-12.76,0-19.13,0-5.44-3.79-9.24-9.21-9.24-34.5-.02-69.01-.02-103.5-.02-22.51,0-45.01,0-67.52,0Z"/>
          <path class="cls-1" d="m39.46,6h.04c18.36.02,36.72.02,55.08.02,9.85,0,19.69,0,29.54,0,25.42,0,50.83,0,76.25.05,16.3.03,30.26,11.95,32.57,28.09.2,1.42.32,2.86.33,4.29.02,56.6-.01,113.19.06,169.79,0,5.6-4.98,10.74-9.59,10.88,0,2.99-.22,5.83.04,8.62,1.39,15.37-7.97,25.32-22.17,25.32-.95,0-1.91-.04-2.9-.13-3.88-.35-7.55-.96-10.86-3.02-5.59-3.48-9.08-8.47-9.56-15.07-.37-5.15-.07-10.35-.07-15.67H61.28c0,4.1,0,8.13,0,12.16.02,11.04-6.66,19.63-17.51,21.24-2.13.32-4.25.51-6.34.51-6.1,0-11.89-1.66-16.64-6.82-3.75-4.07-5.42-8.89-5.61-14.28-.14-4.18-.03-8.38-.03-12.69-4.46-1.21-7.71-3.71-8.81-8.4-.18-.75-.31-1.54-.31-2.31-.01-57.17-.16-114.35.11-171.52.05-11.02,5.87-19.63,15.06-25.72,5.49-3.64,11.58-5.35,18.24-5.35m-4.33,123.44c.06,0,.13,0,.19,0,12.55-.14,25.1-.17,37.65-.17,15.47,0,30.93.06,46.4.06h.27c15.01,0,30.02-.03,45.03-.03,13.53,0,27.06.02,40.59.12.03,0,.05,0,.08,0,6.03,0,11.95-4.89,11.93-12.17-.07-21.75-.02-43.51-.03-65.26,0-7.02-5.13-12.24-12.21-12.24-34.33-.02-68.66-.02-102.99-.02-22.68,0-45.35,0-68.03,0-6.88,0-11.94,5.17-11.94,12.04,0,21.39.19,42.79-.1,64.17-.1,7.65,4.85,13.5,13.16,13.5m161.15,61.84c11.06,0,20.3-9.32,20.34-20.53.04-10.58-9.4-20.12-19.93-20.12h-.01c-11.44,0-20.61,8.79-20.52,20.52.09,11.41,9.06,19.81,20.08,20.14h.04m-153.02,0c10.98,0,20.04-9.17,20.03-20.26,0-11.16-9.02-20.38-20.06-20.38-.04,0-.08,0-.12,0-10.78.06-20.44,8.19-20.48,20.14-.04,11.86,9.65,20.5,20.61,20.5h.01m84.92-9.97c8.02,0,16.03,0,24.05,0,.26,0,.52,0,.77,0s.5,0,.74-.03c3.88-.37,6.63-3.5,6.25-7.11-.33-3.17-3.28-5.45-7.18-5.46-4.85,0-9.7-.01-14.54-.01-6.01,0-12.01,0-18.02,0h-.58c-5.29,0-10.57,0-15.86,0-3.52,0-7.05,0-10.57,0h0c-1.57,0-3.15-.02-4.72-.02-1.02,0-2.04,0-3.07.04-3.29.1-5.98,2.21-6.54,4.96-.56,2.74.9,5.64,3.72,6.83,1.28.54,2.79.75,4.19.75,13.79.03,27.59.03,41.38.03M39.51,0h-.05c-7.94,0-15.19,2.14-21.55,6.35C6.36,13.99.22,24.61.16,37.04-.04,80.64,0,124.96.03,167.82c.01,13.59.02,27.18.03,40.77,0,1.14.15,2.31.47,3.68.86,3.67,3.08,8.23,8.63,11.11-.02,2.88-.05,5.84.05,8.8.24,7.12,2.66,13.23,7.19,18.14,5.35,5.81,12.43,8.75,21.05,8.75,2.25,0,4.61-.19,7.22-.58,13.57-2.02,22.66-12.94,22.63-27.19,0-2.04,0-4.09,0-6.14h104.85c-.05,3.3-.08,6.69.17,10.11.6,8.24,4.88,15.06,12.37,19.73,4.43,2.75,9.1,3.5,13.49,3.9,1.16.1,2.31.16,3.44.16,8.56,0,16.1-3.09,21.22-8.7,5.29-5.79,7.75-14.02,6.92-23.16-.1-1.11-.11-2.32-.09-3.58,5.51-2.75,9.67-8.92,9.66-15.39-.05-38.86-.05-78.38-.05-116.6,0-17.73,0-35.46,0-53.19,0-1.62-.13-3.35-.39-5.14-1.32-9.23-5.96-17.68-13.06-23.79C218.74,3.45,209.71.09,200.38.07c-24.04-.04-47.87-.05-76.26-.05h-14.77s-14.77,0-14.77,0c-18.36,0-36.71,0-55.07-.02h0Zm-4.38,123.44c-2.26,0-4.03-.63-5.26-1.88-1.26-1.28-1.94-3.24-1.91-5.54.2-15.29.17-30.81.13-45.82-.02-6.14-.03-12.29-.03-18.43,0-3.61,2.39-6.04,5.94-6.04,22.68,0,45.35,0,68.03,0,34.33,0,68.66,0,102.99.02,3.72,0,6.21,2.51,6.21,6.24,0,6.36,0,12.72,0,19.08,0,15.14-.02,30.79.03,46.19,0,2.15-.94,3.56-1.74,4.35-1.12,1.12-2.69,1.8-4.19,1.8-11.87-.08-24.4-.12-40.67-.12-7.51,0-15.01,0-22.52.02-7.5,0-15.01.02-22.51.02h-.27c-7.73,0-15.46-.01-23.19-.03-7.74-.01-15.47-.03-23.21-.03-14.79,0-26.77.06-37.71.17h-.13Zm161.2,61.84c-8.02-.28-14.11-6.36-14.17-14.19-.03-3.94,1.41-7.58,4.05-10.24,2.71-2.73,6.43-4.23,10.47-4.23,3.42,0,6.94,1.56,9.65,4.29,2.74,2.75,4.31,6.33,4.29,9.81-.03,7.87-6.57,14.53-14.29,14.56h0Zm-153.09,6v-6c-3.92,0-7.74-1.59-10.49-4.35-2.67-2.68-4.13-6.28-4.12-10.13.03-9.14,7.5-14.12,14.52-14.16h.08c7.75,0,14.05,6.45,14.06,14.38,0,3.78-1.48,7.35-4.16,10.07-2.67,2.7-6.17,4.19-9.87,4.19v6h-.01Zm41.59-16.34c.14-.09.4-.21.78-.22.84-.03,1.76-.04,2.88-.04.77,0,1.55,0,2.32.01.8,0,1.6.01,2.41.01h10.58s7.93,0,7.93,0h17.52s9.01,0,9.01,0c4.84,0,9.69,0,14.53.01.6,0,.98.14,1.18.24,0,0,0,0,0,.01-.06.07-.28.29-.8.34-.03,0-.07,0-.1,0-.02,0-.04,0-.07,0h-.31c-.15,0-.31,0-.46,0h-11.56s-12.49,0-12.49,0c-12.36,0-26.94,0-41.36-.03-.9,0-1.56-.14-1.87-.28-.04-.02-.07-.04-.1-.05h0Z"/>
        </g>
        <path class="cls-2" d="m119.64,129.32c-28.11,0-56.22-.19-84.32.12-8.44.09-13.46-5.79-13.36-13.5.29-21.39.1-42.78.1-64.17,0-6.87,5.06-12.04,11.94-12.04,57.01-.01,114.02-.01,171.03.01,7.08,0,12.21,5.22,12.21,12.24,0,21.75-.04,43.51.03,65.26.02,7.31-5.95,12.21-12.01,12.17-28.54-.2-57.08-.09-85.62-.09Z"/>
        <path class="cls-1" d="m63.29,171.02c0,11.09-9.05,20.27-20.04,20.26-10.96,0-20.65-8.65-20.61-20.5.04-11.94,9.7-20.08,20.48-20.14,11.09-.06,20.17,9.19,20.17,20.38Z"/>
        <path class="cls-1" d="m196.23,191.28c-11.02-.33-19.99-8.73-20.08-20.14-.09-11.73,9.08-20.52,20.53-20.52,10.54,0,19.98,9.54,19.93,20.12-.04,11.22-9.31,20.56-20.39,20.53Z"/>
        <path class="cls-4" d="m119.66,168.71c11.05,0,22.1-.01,33.15,0,3.9,0,6.86,2.29,7.18,5.46.38,3.61-2.37,6.74-6.25,7.11-.5.05-1.01.02-1.52.02-21.81,0-43.62.01-65.43-.03-1.4,0-2.91-.21-4.19-.75-2.82-1.19-4.27-4.1-3.72-6.83.56-2.75,3.26-4.86,6.54-4.96,2.6-.08,5.2-.02,7.8-.02,8.81,0,17.62,0,26.43,0Z"/>
      </g>
    </g>
  </g>
</svg>