<?xml version="1.0" encoding="UTF-8"?>
<svg id="Layer_2" data-name="Layer 2" xmlns="http://www.w3.org/2000/svg" viewBox="0 0 309.74 356.91">
  <defs>
    <style>
      .cls-1 {
        fill: #f26f75;
      }

      .cls-2 {
        fill: #fff;
      }

      .cls-3 {
        fill: #1b1b19;
      }
    </style>
  </defs>
  <g id="Layer_1-2" data-name="Layer 1">
    <g>
      <path class="cls-2" d="m97.15,121.36c6.24-2.19,12.71-3.2,19.18-3.93,6.93-.78,13.93-1.24,20.95-1.1,5.71.11,11.43-.22,17.02,1.36,1.75.5,3.4,1.34,5.37.71,5.71-1.83,11.55-1.23,17.37-.74,3.08.26,6.08,1.08,9.24-.22,2.21-.91,4.73-1.1,7.23-1.1,9.12.02,18.19.24,27.28,1.29,5.25.61,10.45,1.6,15.72,2.08.71.06,1.6.67,2.07.06.49-.64.13-1.58-.24-2.35-1.17-2.52-3.32-4.05-5.61-5.39-5.85-3.43-12.31-5.28-18.79-6.95-9.62-2.47-19.47-3.72-29.34-4.57-6.66-.57-13.35-.68-20.03-.96-6.27-.26-12.51.54-18.77.47-2.8-.03-5.58.27-8.29.61-6.69.84-13.41,1.59-20.02,3.04-8.46,1.86-16.81,3.95-24.65,7.79-4.22,2.07-7.21,4.93-8.42,9.63-1.13,4.37-2.07,8.74-1.94,13.33,3.68-5.83,7.93-10.69,14.67-13.05Z"/>
      <path class="cls-2" d="m258.47,170.62c-4.68,5.14-10.8,6.34-17.14,6.71-6.62.39-12.94-1.32-19.12-3.47-5.23-1.81-10.3-3.98-15.11-6.77-.5-.29-1.42-1.72-2.01.13-1.04,3.21-2.11,6.42-4.52,9.11,2.71.42,4.86-.7,7.12-1.1.88-.15,1.89.16,2.76-.67,1.33-1.26,3.11-.53,3.26,1.31.08,1,.39,2.11-.35,3.06-.75.96-.34,1.61.66,1.99,3.92,1.48,7.64,3.36,11.06,5.78,7.48,5.28,12.69,12.22,15.54,20.99,1.89,5.84,2.77,11.78,3.26,17.89.51,6.35.17,12.68.39,19.01.06,1.58-.53,2.18-2.21,1.57-1.72-.62-3.34-1.34-4.73-2.54-1.39-1.19-2.76-2.4-4.32-3.76-.45,5.73-1.35,11.04-2.4,16.35-2.45,12.44-6.73,24.1-14.39,34.31-5.76,7.66-13.19,13.17-22.22,16.52-4.47,1.66-9.03,2.77-13.79,3.29-6.7.72-13.31.53-19.88-.95-6.05-1.36-11.67-3.79-16.99-6.92-4.61-2.71-8.85-5.97-12.43-9.89-5.47-5.99-9.78-12.8-12.82-20.38-2.78-6.91-4.69-14-5.46-21.45-.3-2.88-.14-5.79-.53-8.64-.83-.08-1.27.4-1.81.62-2.28.94-4.05,2.75-6.5,3.48-2.03.6-3.05.11-3.45-1.84-.33-1.59-.78-3.2-.77-4.79.02-6.45-.55-12.9.9-19.32,2.07-9.18,5.84-17.54,11.79-24.79,7.68-9.36,17.81-14.94,29.35-18.13.98-.27,1.11-.53.67-1.48-1.24-2.68,1.06-6.5,4.1-6.9,0,.31.05.61,0,.9-.62,2.81-.19,3.49,2.29,4.62,3.7,1.68,7.31,1.25,10.84-.31.96-.43,1.64-.31,2.5,0,2.83,1.06,5.52,2.48,8.5,3.15,5.11,1.15,10.24,1.22,15.4.5,5.48-.77,8.92-2.82,10.96-8.29,2.24-6.01.14-11.34-2.81-16.4-2.39-4.11-5.24-7.94-7.65-12.04-2.19-3.72-4.63-7.41-4.52-12.02.03-1.11-.85-1.38-1.62-1.58-2.14-.56-4.29-1.21-6.47-1.48-4.27-.52-8.36.13-12.08,2.54-.63.41-.72.71-.68,1.39.12,2.08-.22,4.1-.79,6.11-1.65,5.82-4.3,11.16-7.46,16.31-5.6,9.15-13.4,15.67-23.12,20-5.93,2.64-12.14,4.03-18.65,4.66-8.19.79-15.69-.22-22.67-4.96-6.12-4.15-9.07-9.74-9.27-16.97-.05-1.79,0-3.57,0-5.8-.65.44-.88.52-1,.69-1.2,1.54-2.45,3.05-3.57,4.65-7.78,11.09-10.21,23.78-10.87,36.97-.23,4.59.57,9.13.91,13.69.31,4.16.96,8.26,1.7,12.35.87,4.79,2.23,9.45,3.63,14.11.23.76.45,1.63-.8,1.55-2.49-.15-4.9.65-7.4.54-1.25-.05-1.85-.61-2.09-1.61-1.68-7.08-2.79-14.27-3.23-21.52-.28-4.53.12-9.1-.08-13.64-.09-2.02,1.14-4.34-.21-5.98-1.3-1.59-3.79-1.39-5.72-2.07-2.7-.95-5.55-1.22-8.33-.33-7.93,2.53-11.69,9.37-12.02,17.7-.16,3.95.75,7.85,1.35,11.75,1.15,7.56,3.68,14.54,8.37,20.65,2.3,3,4.79,5.75,8.64,6.87,2.31.67,4.62.21,6.93.39.69.05,1.36-.26,1.59.97,2.22,11.81,6.27,22.99,11.61,33.74,3.44,6.91,7.33,13.6,12.14,19.56,5.4,6.69,11.15,13.08,18.28,18.23,8.3,5.99,16.88,11.38,26.2,15.53,8.44,3.75,17.26,6.51,26.32,8.37,6.23,1.28,12.52,2.6,18.87,2.66,6.88.06,13.78.03,20.64-1.23,9.29-1.7,18-4.85,26.07-9.68,10.17-6.09,17.85-14.69,23.92-24.77,6.98-11.6,12.14-23.98,16.24-36.88,3.8-11.96,6.89-24.09,9.71-36.3,1.6-6.95,2.77-13.98,3.2-21.09.37-6.05-.44-12.07-1.68-18.01-1.94-9.32-4.86-18.27-9.9-26.52Zm-206.73,58.33c-.41.88-.91,1.98-2.12,1.59-.9-.29-.9-1.33-1.01-2.21-.68-5.27-.73-10.63-2.27-15.8-.87-2.9-1.92-5.67-3.68-8.13-1.09-1.53-1.88-3.2-2.61-4.89-.73-1.7-.04-2.51,1.77-2.63,2.46-.16,4.17,1.21,5.62,2.85,3.42,3.87,4.94,8.58,5.71,13.59.28,1.86.59,3.71.42,5.35.13,3.72-.37,7.09-1.84,10.27Z"/>
      <path class="cls-3" d="m305.3,154.68c1.46-1.15,2.44-2.65,3.12-4.38,1.14-2.9,1.38-5.9,1.31-8.99-.13-5.65-2.19-10.36-6.65-13.88-1-.79-1.14-1.37-.7-2.54.64-1.71,1.25-3.51,1.4-5.31.81-9.87-2.75-17.82-10.85-23.61-.96-.68-1.51-1.14-1-2.45.69-1.76.47-3.68.52-5.56.2-7.87-5.41-16.09-12.97-18.39-1.32-.4-1.7-1.03-1.64-2.39.5-10.67-6.99-20.47-18.65-21.76-.85-.09-1.25-.15-1.37-1.22-.75-6.49-4.43-11.12-9.71-14.61-4.06-2.68-8.63-3.16-13.33-2.78-1.42.11-1.94-.49-2.35-1.64-2.2-6.08-6.49-10.11-12.4-12.51-5.48-2.22-10.97-1.61-16.43.1-1,.31-1.88.7-2.6-.38-5.87-8.83-20.21-11.39-29.42-6.1-1.24.71-2.11.38-3.19-.48-7-5.62-14.95-6.87-23.58-4.96-4.25.94-7.53,3.61-10.9,6.04-1.04.75-1.6.61-2.48.18-3.4-1.66-7.08-2.43-10.79-2.55-8.93-.29-15.61,3.88-20.5,11.11-.76,1.12-1.3,1.37-2.49.9-2.17-.85-4.52-1.05-6.78-1.04-8.14.01-15.81,5.26-18.67,13.01-.87,2.36-2.1,3.23-4.45,2.85-.3-.05-.61,0-.91,0-7.08-.3-12.29,3.16-16.63,8.33-2.55,3.04-3.93,6.66-4.78,10.46-.29,1.3.34,2.93-.22,4.02-.65,1.28-2.53.84-3.84,1.22-8.39,2.48-16.49,12.03-14.55,23.22.18,1.06-.13,1.59-1.13,1.91-4.31,1.35-7.25,4.39-9.55,8.09-3.71,5.97-4.71,12.23-1.69,18.82.47,1.02.24,1.61-.73,2.28-8.58,5.92-12.76,17.41-6.98,27.51.98,1.72.45,2.43-.62,3.65-7.11,8.02-8.57,18.91-1.41,27.47,1.04,1.24.57,2.15-.1,3.24-2.11,3.42-3.31,7.26-3.26,11.18.1,7.06,2.26,13.34,8.7,17.33.92.57,1.29,1.01.88,2.37-1.49,4.87-2.25,9.91-.96,14.96,1.75,6.84,5.82,11.77,12.65,13.62,1.34.36,2.16.97,2.29,2.25.21,2.04,1.12,3.82,1.94,5.61,4.34,9.38,11.42,15.84,21.11,19.41.64.24,1.01.36,1.13,1.1,1.01,6.33,3.14,12.32,5.42,18.28,4.1,10.72,9.89,20.47,16.82,29.58,5.63,7.39,12.13,13.94,19.36,19.76,5.97,4.81,12.28,9.16,19.07,12.68,9.17,4.76,18.66,8.8,28.66,11.62,6.53,1.84,13.13,3.34,19.82,4.38,5.66.88,11.39,1.34,17.14,1.24,4.82-.08,9.67-.06,14.41-.85,8.82-1.48,17.34-3.99,25.45-7.95,12.91-6.3,23.3-15.48,31.67-27.03,6.79-9.37,12.04-19.6,16.4-30.29,3.91-9.6,6.94-19.5,9.54-29.52,1.61-6.21,3.24-12.43,4.44-18.72.4-2.09,1.04-2.88,3-3.33,3.48-.8,6.71-2.28,9.2-4.94,5.05-5.4,7.42-11.58,5.23-18.99-.46-1.57-.28-2.81,1.36-3.59,1.58-.75,2.91-1.85,3.97-3.23,5.17-6.76,5.76-14,2.08-21.57-.65-1.34-.48-2.37.56-3.02,8.13-5.09,8.78-19.94,2.48-26.76-1.01-1.09-.87-1.62.14-2.42Zm-220.88-33.61c1.21-4.7,4.2-7.56,8.42-9.63,7.84-3.84,16.2-5.92,24.65-7.79,6.61-1.46,13.33-2.21,20.02-3.04,2.71-.34,5.49-.64,8.29-.61,6.26.08,12.5-.73,18.77-.47,6.68.28,13.38.38,20.03.96,9.87.85,19.72,2.1,29.34,4.57,6.48,1.66,12.95,3.52,18.79,6.95,2.28,1.34,4.43,2.86,5.61,5.39.36.78.73,1.71.24,2.35-.47.61-1.36,0-2.07-.06-5.27-.48-10.47-1.47-15.72-2.08-9.09-1.05-18.16-1.27-27.28-1.29-2.5,0-5.02.19-7.23,1.1-3.16,1.3-6.16.48-9.24.22-5.82-.49-11.66-1.09-17.37.74-1.97.63-3.62-.21-5.37-.71-5.59-1.58-11.31-1.25-17.02-1.36-7.02-.14-14.01.31-20.95,1.1-6.47.73-12.94,1.74-19.18,3.93-6.74,2.36-10.99,7.22-14.67,13.05-.13-4.59.81-8.96,1.94-13.33Zm185.62,94.08c-.43,7.11-1.6,14.14-3.2,21.09-2.82,12.21-5.91,24.34-9.71,36.3-4.1,12.9-9.25,25.28-16.24,36.88-6.07,10.08-13.75,18.68-23.92,24.77-8.06,4.83-16.78,7.98-26.07,9.68-6.86,1.26-13.76,1.29-20.64,1.23-6.35-.06-12.64-1.37-18.87-2.66-9.06-1.86-17.88-4.62-26.32-8.37-9.32-4.14-17.9-9.54-26.2-15.53-7.13-5.15-12.88-11.54-18.28-18.23-4.81-5.96-8.71-12.65-12.14-19.56-5.34-10.75-9.39-21.93-11.61-33.74-.23-1.23-.9-.92-1.59-.97-2.3-.18-4.62.28-6.93-.39-3.85-1.12-6.34-3.87-8.64-6.87-4.69-6.1-7.21-13.09-8.37-20.65-.6-3.9-1.5-7.8-1.35-11.75.33-8.33,4.09-15.17,12.02-17.7,2.78-.89,5.63-.62,8.33.33,1.93.68,4.42.48,5.72,2.07,1.35,1.64.12,3.96.21,5.98.2,4.54-.2,9.11.08,13.64.44,7.25,1.55,14.44,3.23,21.52.24,1,.83,1.55,2.09,1.61,2.5.11,4.9-.7,7.4-.54,1.25.08,1.03-.79.8-1.55-1.41-4.65-2.76-9.31-3.63-14.11-.74-4.1-1.39-8.2-1.7-12.35-.34-4.56-1.14-9.1-.91-13.69.66-13.19,3.09-25.87,10.87-36.97,1.12-1.6,2.37-3.11,3.57-4.65.13-.16.35-.25,1-.69,0,2.23-.04,4.01,0,5.8.2,7.23,3.16,12.82,9.27,16.97,6.98,4.74,14.48,5.75,22.67,4.96,6.51-.63,12.71-2.01,18.65-4.66,9.71-4.33,17.52-10.86,23.12-20,3.15-5.15,5.8-10.49,7.46-16.31.57-2.01.91-4.04.79-6.11-.04-.68.05-.98.68-1.39,3.72-2.4,7.8-3.05,12.08-2.54,2.19.26,4.33.91,6.47,1.48.77.2,1.65.47,1.62,1.58-.11,4.61,2.33,8.3,4.52,12.02,2.41,4.1,5.26,7.93,7.65,12.04,2.95,5.07,5.06,10.39,2.81,16.4-2.04,5.48-5.48,7.52-10.96,8.29-5.16.73-10.29.65-15.4-.5-2.98-.67-5.67-2.09-8.5-3.15-.86-.32-1.54-.43-2.5,0-3.53,1.56-7.14,1.99-10.84.31-2.48-1.13-2.91-1.81-2.29-4.62.06-.28,0-.59,0-.9-3.04.39-5.33,4.22-4.1,6.9.44.95.31,1.21-.67,1.48-11.54,3.19-21.67,8.77-29.35,18.13-5.95,7.25-9.71,15.61-11.79,24.79-1.45,6.41-.88,12.87-.9,19.32,0,1.6.45,3.21.77,4.79.4,1.95,1.42,2.44,3.45,1.84,2.45-.72,4.22-2.54,6.5-3.48.54-.22.99-.7,1.81-.62.39,2.85.23,5.76.53,8.64.77,7.45,2.68,14.54,5.46,21.45,3.04,7.58,7.35,14.38,12.82,20.38,3.58,3.92,7.82,7.18,12.43,9.89,5.33,3.13,10.95,5.56,16.99,6.92,6.57,1.48,13.18,1.67,19.88.95,4.76-.51,9.32-1.63,13.79-3.29,9.03-3.35,16.46-8.85,22.22-16.52,7.67-10.21,11.95-21.87,14.39-34.31,1.04-5.31,1.95-10.62,2.4-16.35,1.56,1.36,2.93,2.57,4.32,3.76,1.39,1.19,3.01,1.91,4.73,2.54,1.68.61,2.26,0,2.21-1.57-.22-6.33.11-12.66-.39-19.01-.49-6.12-1.36-12.05-3.26-17.89-2.84-8.77-8.06-15.71-15.54-20.99-3.42-2.41-7.14-4.29-11.06-5.78-1-.38-1.41-1.03-.66-1.99.75-.96.43-2.07.35-3.06-.15-1.84-1.92-2.57-3.26-1.31-.87.82-1.88.51-2.76.67-2.26.39-4.42,1.51-7.12,1.1,2.41-2.68,3.48-5.9,4.52-9.11.6-1.84,1.52-.41,2.01-.13,4.8,2.78,9.88,4.96,15.11,6.77,6.19,2.14,12.5,3.86,19.12,3.47,6.34-.38,12.46-1.57,17.14-6.71,5.04,8.25,7.96,17.2,9.9,26.52,1.24,5.94,2.05,11.95,1.68,18.01Zm-100.04,46.42c-.44-3.6.55-6.63,3.59-8.76,3.59-2.52,7.6-2.86,11.88-2.44,6.88.68,12.85,3.29,17.97,7.85,6.64,5.91,9.05,13.56,7.85,22.11-1.04,7.36-5.88,12.46-11.97,16.32-7.38,4.67-15.58,6.62-21.55,6.75-12.31-.03-21.42-2.03-29.61-7.2-6.56-4.14-12.4-9.06-16.93-15.54-3.92-5.6-6.74-11.53-8.09-18.23-.93-4.62,1.12-9.16,5.42-10.83,6.7-2.6,13.55-2.29,20.42-.7,7.46,1.72,13.79,5.25,18.38,11.55.41.56.91,1.45,1.76,1.08.72-.31.97-1.19.88-1.96Zm22.99-55.12c-7.46-1.33-14.9-1.12-22.32.15-9.28,1.58-18.18,4.29-26.44,8.92-6.63,3.72-12.73,8.21-18.63,12.98-1.68,1.36-3.41,2.64-5.11,3.96-.09.1-.17.19-.26.29-.02-.19-.05-.37-.07-.56,0,0,0,0,0,0,3.46-9.05,8.08-17.22,15.23-23.51,1.65-1.45,3.43-2.81,5.36-4.05,4.8-3.08,10.09-5.02,15.46-6.82,7.39-2.47,14.86-4.73,22.04-7.79.72-.3,1.33-.59,2.13-.2,7.73,3.76,16.12,5.81,23.96,9.33,9.95,4.47,16.57,11.52,18.95,22.31.26,1.16.63,2.3.85,3.46.2,1.06.25,2.15.4,3.5-2.36-2.39-3.99-5.09-6-7.46-6.78-7.98-15.32-12.67-25.55-14.5Z"/>
      <path class="cls-1" d="m169.13,263.53c-.86.37-1.35-.51-1.76-1.08-4.59-6.31-10.93-9.83-18.38-11.55-6.86-1.59-13.72-1.9-20.42.7-4.3,1.67-6.36,6.21-5.42,10.83,1.35,6.7,4.17,12.63,8.09,18.23,4.53,6.47,10.36,11.4,16.93,15.54,8.19,5.16,17.3,7.17,29.61,7.2,5.97-.13,14.16-2.07,21.55-6.75,6.09-3.85,10.94-8.95,11.97-16.32,1.2-8.55-1.21-16.2-7.85-22.11-5.12-4.56-11.09-7.16-17.97-7.85-4.28-.42-8.29-.08-11.88,2.44-3.04,2.13-4.03,5.15-3.59,8.76.09.77-.16,1.66-.88,1.96Z"/>
      <path class="cls-2" d="m218.54,220.95c2.02,2.37,3.64,5.07,6,7.46-.15-1.35-.2-2.44-.4-3.5-.22-1.17-.59-2.3-.85-3.46-2.38-10.79-9-17.83-18.95-22.31-7.84-3.52-16.23-5.57-23.96-9.33-.81-.39-1.42-.1-2.13.2-7.18,3.06-14.65,5.32-22.04,7.79-5.37,1.8-10.66,3.74-15.46,6.82-1.93,1.24-3.72,2.59-5.36,4.05-7.14,6.29-11.77,14.47-15.23,23.51,0,0,0,0,0,0,.12.08.23.17.33.27,1.71-1.32,3.44-2.61,5.11-3.96,5.9-4.77,11.99-9.26,18.63-12.98,8.25-4.63,17.16-7.34,26.44-8.92,7.43-1.27,14.87-1.48,22.32-.15,10.23,1.83,18.76,6.52,25.55,14.5Z"/>
      <path class="cls-2" d="m120.16,232.18s0,0,0,0c3.46-9.05,8.08-17.22,15.23-23.51-7.14,6.29-11.77,14.47-15.23,23.51,0,0,0,0,0,0,0,0,0,0,0,0,0,0,0,0,0,0Z"/>
      <path class="cls-2" d="m120.24,232.74c.09-.1.17-.19.26-.29-.1-.11-.21-.2-.33-.27.02.19.05.37.07.56Z"/>
      <path class="cls-2" d="m120.16,232.18c.03.19.05.37.07.56-.02-.19-.05-.37-.07-.56,0,0,0,0,0,0Z"/>
      <path class="cls-2" d="m120.16,232.18c.12.08.23.17.33.27-.1-.11-.21-.2-.33-.27,0,0,0,0,0,0Z"/>
      <polygon class="cls-2" points="120.16 232.18 120.16 232.18 120.16 232.18 120.16 232.18 120.16 232.18"/>
      <path class="cls-3" d="m53.16,213.33c-.77-5.02-2.29-9.72-5.71-13.59-1.45-1.64-3.16-3.01-5.62-2.85-1.81.12-2.5.93-1.77,2.63.72,1.69,1.51,3.36,2.61,4.89,1.76,2.45,2.82,5.23,3.68,8.13,1.54,5.17,1.59,10.52,2.27,15.8.11.87.11,1.92,1.01,2.21,1.21.39,1.71-.7,2.12-1.59,1.47-3.18,1.97-6.54,1.84-10.27.17-1.64-.14-3.49-.42-5.35Z"/>
    </g>
  </g>
</svg>