<?xml version="1.0" encoding="UTF-8"?>
<svg id="Layer_2" data-name="Layer 2" xmlns="http://www.w3.org/2000/svg" viewBox="0 0 292.03 202.92">
  <defs>
    <style>
      .cls-1 {
        fill: #fff;
      }

      .cls-2 {
        fill: #db6628;
      }
    </style>
  </defs>
  <g id="Layer_1-2" data-name="Layer 1">
    <g id="tQkT6F">
      <g>
        <path class="cls-1" d="m148.32,117.96c1.68-1.24,2.13-1.67,2.66-1.95,17.45-9.19,34.8-18.61,52.46-27.38,4.57-2.27,10.13-3.44,15.27-3.54,19.99-.4,39.99-.15,59.98-.18,5.19,0,7.23-2.02,7.3-7.17.07-5.16.02-10.33.01-15.5-.02-6.64-1.58-8.31-8.12-8.33-20.66-.04-41.33.22-61.98-.19-5.46-.11-11.36-1.22-16.23-3.57-27.79-13.36-55.28-27.35-83.02-40.82-4.02-1.95-8.82-2.95-13.31-3.11-11.48-.43-22.99-.16-34.48-.12-2.49,0-5.13-.28-7.41.45-1.57.51-3.36,2.4-3.69,3.96-.26,1.22,1.4,3.03,2.52,4.3.71.81,1.98,1.14,3.02,1.64,23.54,11.45,47.08,22.89,70.61,34.34,1.5.73,2.96,1.55,4.43,2.33-.12.27-.23.55-.35.82h-5.46c-39.49,0-78.98,0-118.47,0-6.34,0-7.97,1.63-8,7.9-.02,5.33.14,10.67-.05,15.99-.17,4.8,2.46,6.99,6.68,7.77,1.78.33,3.65.17,5.48.17,38.49.01,76.98.01,115.47.01,2.39,0,4.78,0,7.17,0-18.47,10.54-37.01,20.4-55.77,29.81-3.4,1.71-7.7,2.19-11.59,2.23-19.49.22-38.99.1-58.48.1-7.36,0-8.91,1.59-8.91,9.13,0,4.67,0,9.33,0,14,.01,6.9,1.91,8.82,8.83,8.83,19.66.02,39.33.22,58.98-.1,8.23-.13,15.62,1.78,22.9,5.45,25.39,12.79,50.88,25.4,76.38,37.98,3.09,1.52,6.48,3.33,9.77,3.41,14.82.38,29.65.29,44.48.06,1.51-.02,3.82-1.87,4.24-3.31.41-1.42-.84-3.59-1.87-5.08-.67-.97-2.23-1.37-3.42-1.94-19.98-9.65-39.96-19.27-59.94-28.93-4.51-2.18-8.98-4.47-13.47-6.7.09-.28.18-.56.28-.83h5.37c39.49,0,78.98,0,118.47,0,7,0,8.95-1.91,8.97-8.7.01-5,.02-10,0-15-.02-6.42-1.84-8.25-8.27-8.25-21.49-.01-42.99,0-64.48,0-21.15,0-42.3,0-64.93,0Z"/>
        <g>
          <path class="cls-2" d="m204.67,199.92c-7.87,0-15.01-.09-21.84-.26-3.71-.1-7.23-1.84-10.33-3.38l-.68-.34c-22.88-11.28-49.84-24.62-76.4-37.99-6.86-3.45-13.65-5.13-20.75-5.13-.25,0-.5,0-.75,0-7.47.12-15.54.18-25.41.18-5.96,0-11.92-.02-17.89-.04-5.24-.02-10.49-.04-15.73-.04-8.61,0-11.81-3.21-11.83-11.82,0-4.67,0-9.34,0-14.01.01-9.17,2.91-12.12,11.91-12.12h1.65c4.81,0,9.61,0,14.42.01,4.8,0,9.61.01,14.41.01,11.26,0,19.89-.04,27.97-.13,4.39-.05,7.85-.69,10.28-1.91,16-8.03,31.05-15.97,45.69-24.13h-15.33c-31.96,0-63.92,0-95.88-.01-.42,0-.84,0-1.27.02-.47,0-.93.02-1.4.02-.91,0-2.11-.03-3.36-.26-6.1-1.12-9.34-4.96-9.14-10.82.12-3.42.09-6.94.06-10.34-.01-1.85-.03-3.71-.02-5.56.03-7.94,3.01-10.89,11-10.89,18.72,0,113.3,0,113.3,0-12.28-5.97-65.38-31.8-65.38-31.8-.24-.12-.49-.22-.74-.32-1-.42-2.25-.93-3.23-2.04l-.15-.17c-1.53-1.73-3.62-4.1-3.05-6.74.56-2.57,3.12-5.34,5.7-6.18,1.78-.58,3.62-.65,5.02-.65.56,0,1.12.01,1.69.03.51.01,1.02.02,1.53.02,3.02,0,5.94-.03,8.87-.06,3.63-.03,7.27-.06,10.9-.06,5.78,0,10.52.08,14.93.24,5.22.19,10.37,1.41,14.51,3.41,12.68,6.15,25.51,12.52,37.92,18.68,14.75,7.32,30,14.88,45.09,22.14,4.16,2,9.48,3.16,15,3.27,8.09.16,16.74.23,28.03.23,4.82,0,9.64-.01,14.46-.02,4.82-.01,9.65-.03,14.47-.03,1.66,0,3.31,0,4.97,0,8.19.02,11.1,2.98,11.12,11.32v3.55c.03,3.93.04,7.99-.01,12-.09,6.8-3.46,10.11-10.3,10.12h-3.46c-4.9,0-9.79-.01-14.69-.02-4.89-.01-9.78-.03-14.67-.03-10.88,0-19.25.07-27.12.23-4.96.1-10.06,1.28-13.99,3.23-13.02,6.47-26.1,13.41-38.76,20.13-2.21,1.17-4.42,2.34-6.63,3.52h88.58c9.92,0,19.84,0,29.75,0,8.08,0,11.24,3.16,11.27,11.24.02,5,.02,10.01,0,15.02-.03,9.74-4.6,11.69-11.97,11.69h-113.08c1.25.62,2.5,1.24,3.74,1.84,11.69,5.65,23.38,11.29,35.07,16.93,8.29,4,16.58,8,24.87,12,.26.12.54.24.82.35,1.23.51,2.76,1.13,3.76,2.58,2.16,3.13,2.89,5.55,2.28,7.62-.79,2.72-4.29,5.43-7.08,5.48-8.77.13-16.01.2-22.76.2Z"/>
          <path class="cls-1" d="m88.51,6c4.94,0,9.88.05,14.82.24,4.49.17,9.29,1.17,13.31,3.11,27.74,13.46,55.23,27.46,83.02,40.82,4.88,2.35,10.78,3.46,16.23,3.57,9.37.19,18.74.23,28.11.23s19.25-.05,28.87-.05c1.67,0,3.33,0,5,0,6.55.01,8.11,1.69,8.12,8.33.01,5.17.06,10.33-.01,15.5-.07,5.15-2.11,7.16-7.3,7.17-1.16,0-2.31,0-3.47,0-9.77,0-19.53-.05-29.3-.05-9.07,0-18.14.05-27.21.23-5.14.1-10.69,1.27-15.27,3.54-17.66,8.77-35,18.19-52.46,27.38-.53.28-.98.71-2.66,1.95h64.93c11.86,0,23.72,0,35.58,0,9.64,0,19.27,0,28.91,0,6.43,0,8.25,1.83,8.27,8.25.02,5,.02,10,0,15-.02,6.8-1.97,8.7-8.97,8.7-19.22,0-38.45,0-57.67,0-20.27,0-40.53,0-60.8,0h-5.37c-.09.28-.18.56-.28.83,4.49,2.24,8.95,4.52,13.47,6.7,19.97,9.66,39.96,19.28,59.94,28.93,1.2.58,2.75.97,3.42,1.94,1.03,1.49,2.28,3.66,1.87,5.08-.42,1.44-2.73,3.29-4.24,3.31-7.57.12-15.14.2-22.71.2s-14.51-.07-21.77-.26c-3.29-.09-6.68-1.89-9.77-3.41-25.5-12.57-50.98-25.19-76.38-37.98-7.04-3.54-14.19-5.45-22.1-5.45-.27,0-.53,0-.8,0-8.45.14-16.9.18-25.35.18-11.21,0-22.42-.07-33.63-.08-6.92,0-8.82-1.92-8.83-8.83,0-4.67,0-9.33,0-14,0-7.54,1.55-9.12,8.91-9.13.49,0,.98,0,1.47,0,9.66,0,19.32.03,28.98.03s18.69-.03,28.03-.13c3.89-.04,8.19-.53,11.59-2.23,18.76-9.41,37.3-19.27,55.77-29.81h-3.91c-1.09,0-2.17,0-3.26,0-38.49,0-76.98,0-115.47-.01h0c-.88,0-1.77.04-2.66.04-.95,0-1.9-.04-2.82-.21-4.22-.77-6.85-2.97-6.68-7.77.18-5.33.02-10.66.05-15.99.03-6.28,1.66-7.9,8-7.9,18.19,0,36.38,0,54.56,0,21.3,0,42.6,0,63.9,0h5.46c.12-.27.23-.55.35-.82-1.48-.78-2.93-1.6-4.43-2.33-23.53-11.45-47.07-22.89-70.61-34.34-1.04-.51-2.31-.83-3.02-1.64-1.12-1.27-2.78-3.08-2.52-4.3.34-1.56,2.13-3.45,3.69-3.96,1.28-.41,2.68-.5,4.1-.5,1.07,0,2.16.05,3.22.05.03,0,.06,0,.09,0,6.55-.02,13.11-.12,19.66-.12m0-6c-3.66,0-7.36.03-10.95.06-2.91.02-5.82.05-8.73.06h-.08c-.48,0-.97-.01-1.46-.02-.59-.01-1.18-.03-1.76-.03-1.62,0-3.76.09-5.94.79-3.62,1.17-6.94,4.78-7.72,8.4-.89,4.12,2,7.4,3.73,9.36l.15.17c1.44,1.63,3.18,2.35,4.33,2.83.19.08.39.16.57.24l27.08,13.17c8.86,4.31,17.73,8.62,26.59,12.93h-11.56s-34.15,0-34.15,0c-18.19,0-36.38,0-54.57,0-9.64,0-13.96,4.28-14,13.88,0,1.86,0,3.73.02,5.59.03,3.53.05,6.86-.06,10.22-.26,7.42,3.97,12.48,11.6,13.88,1.49.27,2.87.31,3.9.31.48,0,.97,0,1.45-.02.4,0,.81-.02,1.21-.02,32.47,0,64.93.01,97.38.01h2.16c-11.39,6.19-23.09,12.29-35.36,18.45-2.02,1.01-5.04,1.55-8.97,1.59-8.08.09-16.7.13-27.96.13-4.83,0-9.65,0-14.48-.01-4.83,0-9.67-.01-14.5-.01h-1.47c-4.18,0-8.47.43-11.51,3.55C.32,118.72.05,123.17.05,127.08c0,4.67,0,9.34,0,14.02.02,10.24,4.59,14.8,14.83,14.81,5.23,0,10.46.02,15.69.04,5.98.02,11.96.04,17.94.04,9.88,0,17.96-.06,25.45-.18.23,0,.47,0,.7,0,6.72,0,12.88,1.53,19.4,4.81,26.59,13.39,53.55,26.72,76.42,38l.67.33c3.22,1.6,7.22,3.58,11.59,3.7,6.86.18,14.03.26,21.92.26,6.78,0,14.03-.06,22.8-.2,4.12-.06,8.75-3.63,9.91-7.64,1.15-3.95-.99-7.69-2.7-10.16-1.51-2.18-3.67-3.07-5.09-3.66-.22-.09-.45-.18-.65-.28-8.3-4.01-16.6-8.01-24.9-12.02-9.01-4.35-18.02-8.69-27.03-13.04h11.96s30.4,0,30.4,0c19.22,0,38.45,0,57.67,0,10.32,0,14.94-4.53,14.97-14.69.02-5.54.02-10.46,0-15.04-.04-9.7-4.57-14.22-14.27-14.23-9.64,0-19.27,0-28.91,0h-17.79s-17.79,0-17.79,0h-41.8c11.37-6.03,23.05-12.19,34.66-17.96,3.55-1.76,8.18-2.83,12.72-2.92,7.86-.16,16.21-.23,27.09-.23,4.88,0,9.75.01,14.63.03,4.89.01,9.78.03,14.67.03,1.16,0,2.32,0,3.48,0,8.46-.01,13.18-4.66,13.29-13.08.06-4.06.04-8.16.02-12.13,0-1.16,0-2.31-.01-3.47-.02-10.01-4.24-14.29-14.11-14.31-1.67,0-3.34,0-5.01,0-4.82,0-9.63.01-14.45.02-4.81.01-9.61.02-14.42.02-11.28,0-19.91-.07-27.99-.23-5.09-.1-9.97-1.16-13.75-2.97-15.07-7.25-30.31-14.81-45.06-22.12-12.41-6.16-25.25-12.53-37.94-18.69-4.5-2.18-10.08-3.5-15.71-3.71-4.44-.17-9.23-.24-15.04-.24h0Z"/>
        </g>
      </g>
    </g>
  </g>
</svg>