<?xml version="1.0" encoding="UTF-8"?>
<svg id="Layer_2" data-name="Layer 2" xmlns="http://www.w3.org/2000/svg" viewBox="0 0 296.44 244.16">
  <defs>
    <style>
      .cls-1 {
        fill: #fff;
      }

      .cls-2 {
        fill: #e02926;
      }

      .cls-3 {
        fill: #2b338c;
      }
    </style>
  </defs>
  <g id="Layer_1-2" data-name="Layer 1">
    <g>
      <g>
        <path class="cls-2" d="m148.01,241.16c-27.07,0-53.59-9.37-74.67-26.38-20.14-16.25-34.58-38.8-40.84-63.7H10.53c-4.15,0-7.53-3.38-7.53-7.53v-42.95c0-4.15,3.38-7.53,7.53-7.53h21.98c6.26-24.9,20.7-47.44,40.84-63.7C94.42,12.37,120.94,3,148.01,3s53.59,9.37,74.67,26.38c20.14,16.25,34.58,38.8,40.84,63.7h22.4c4.15,0,7.53,3.38,7.53,7.53v42.95c0,4.15-3.38,7.53-7.53,7.53h-22.4c-6.26,24.9-20.7,47.44-40.84,63.7-21.08,17.01-47.6,26.38-74.67,26.38Zm-63.77-90.08c11.31,24.74,36.4,41.08,63.77,41.08s52.46-16.34,63.77-41.08h-127.55Zm127.55-58c-11.31-24.74-36.4-41.08-63.77-41.08s-52.46,16.34-63.77,41.08h127.55Z"/>
        <path class="cls-1" d="m148.01,6c55.07,0,101.3,38.55,113.14,90.08h24.76c2.5,0,4.53,2.03,4.53,4.53v42.95c0,2.5-2.03,4.53-4.53,4.53h-24.76c-11.84,51.53-58.07,90.08-113.14,90.08s-101.3-38.55-113.14-90.08H10.53c-2.5,0-4.53-2.03-4.53-4.53v-42.95c0-2.5,2.03-4.53,4.53-4.53h24.34C46.71,44.55,92.94,6,148.01,6m-68.28,90.08h136.56c-10.5-27.49-37.14-47.08-68.28-47.08s-57.78,19.59-68.28,47.08m68.28,99.08c31.14,0,57.78-19.59,68.28-47.08H79.73c10.5,27.49,37.14,47.08,68.28,47.08m0-195.16c-27.75,0-54.94,9.61-76.55,27.05-20.03,16.17-34.56,38.41-41.27,63.03H10.53c-5.8,0-10.53,4.72-10.53,10.53v42.95c0,5.8,4.72,10.53,10.53,10.53h19.66c6.71,24.63,21.24,46.87,41.27,63.03,21.61,17.44,48.8,27.05,76.55,27.05s54.94-9.61,76.55-27.05c20.03-16.17,34.56-38.41,41.27-63.03h20.08c5.8,0,10.53-4.72,10.53-10.53v-42.95c0-5.8-4.72-10.53-10.53-10.53h-20.08c-6.71-24.63-21.24-46.87-41.27-63.03C202.95,9.61,175.77,0,148.01,0h0Zm-58.93,90.08c4.94-9.08,11.91-16.91,20.5-22.94,11.31-7.94,24.6-12.14,38.43-12.14s27.12,4.2,38.43,12.14c8.59,6.03,15.56,13.86,20.5,22.94h-117.86Zm0,64h117.86c-4.94,9.08-11.91,16.91-20.5,22.94-11.31,7.94-24.6,12.14-38.43,12.14s-27.12-4.2-38.43-12.14c-8.59-6.03-15.56-13.86-20.5-22.94h0Z"/>
      </g>
      <g>
        <path class="cls-2" d="m148.01,238.16c-64.01,0-116.08-52.07-116.08-116.08S84,6,148.01,6s116.08,52.07,116.08,116.08-52.07,116.08-116.08,116.08Zm0-189.16c-40.3,0-73.08,32.78-73.08,73.08s32.78,73.08,73.08,73.08,73.08-32.78,73.08-73.08-32.78-73.08-73.08-73.08Z"/>
        <rect class="cls-3" x="6" y="96.08" width="284.44" height="52" rx="4.53" ry="4.53"/>
      </g>
    </g>
  </g>
</svg>