<?xml version="1.0" encoding="UTF-8"?>
<svg id="Layer_2" data-name="Layer 2" xmlns="http://www.w3.org/2000/svg" viewBox="0 0 309.74 356.91">
  <defs>
    <style>
      .cls-1 {
        fill: #f26f75;
      }

      .cls-2 {
        fill: #fff;
      }

      .cls-3 {
        fill: #1b1b19;
      }
    </style>
  </defs>
  <g id="Layer_1-2" data-name="Layer 1">
    <g id="_7xVeRt" data-name="7xVeRt">
      <g>
        <path class="cls-3" d="m66.82,31.32c.3,0,.61-.04.91,0,2.34.38,3.58-.48,4.45-2.85,2.87-7.75,10.53-13,18.67-13.01,2.26,0,4.61.2,6.78,1.04,1.19.47,1.74.22,2.49-.9,4.89-7.23,11.57-11.4,20.5-11.11,3.71.12,7.39.89,10.79,2.55.89.43,1.44.57,2.48-.18,3.37-2.43,6.65-5.1,10.9-6.04,8.63-1.91,16.58-.65,23.58,4.96,1.08.87,1.94,1.2,3.19.48,9.21-5.28,23.55-2.73,29.42,6.1.72,1.08,1.6.69,2.6.38,5.46-1.71,10.95-2.32,16.43-.1,5.91,2.4,10.2,6.43,12.4,12.51.42,1.15.94,1.75,2.35,1.64,4.69-.38,9.27.11,13.33,2.78,5.29,3.49,8.96,8.12,9.71,14.61.12,1.07.52,1.13,1.37,1.22,11.66,1.29,19.16,11.09,18.65,21.76-.06,1.35.31,1.98,1.63,2.39,7.56,2.3,13.17,10.52,12.97,18.39-.05,1.87.17,3.79-.52,5.56-.51,1.31.05,1.76,1,2.45,8.1,5.79,11.66,13.74,10.85,23.61-.15,1.8-.76,3.6-1.4,5.31-.44,1.17-.3,1.75.7,2.54,4.46,3.52,6.52,8.23,6.65,13.88.07,3.09-.18,6.09-1.31,8.99-.68,1.73-1.67,3.23-3.12,4.38-1.01.8-1.14,1.33-.14,2.42,6.3,6.82,5.65,21.67-2.48,26.76-1.04.65-1.21,1.67-.56,3.02,3.68,7.58,3.09,14.82-2.08,21.57-1.06,1.39-2.39,2.49-3.97,3.23-1.64.78-1.83,2.02-1.36,3.59,2.19,7.41-.18,13.59-5.23,18.99-2.49,2.66-5.72,4.15-9.2,4.94-1.96.45-2.6,1.24-3,3.33-1.2,6.29-2.83,12.51-4.44,18.72-2.6,10.03-5.63,19.92-9.54,29.52-4.36,10.7-9.61,20.93-16.4,30.29-8.37,11.54-18.76,20.73-31.67,27.03-8.11,3.96-16.62,6.47-25.45,7.95-4.74.79-9.59.77-14.41.85-5.75.1-11.48-.36-17.14-1.24-6.69-1.04-13.29-2.54-19.82-4.38-10-2.82-19.49-6.86-28.66-11.62-6.78-3.53-13.1-7.87-19.07-12.68-7.23-5.82-13.73-12.37-19.36-19.76-6.94-9.1-12.73-18.86-16.82-29.58-2.28-5.96-4.41-11.95-5.42-18.28-.12-.74-.49-.86-1.13-1.1-9.69-3.57-16.77-10.02-21.11-19.41-.83-1.79-1.73-3.57-1.94-5.61-.13-1.29-.95-1.89-2.29-2.25-6.84-1.85-10.9-6.78-12.65-13.62-1.29-5.05-.53-10.09.96-14.96.42-1.36.05-1.8-.88-2.37-6.44-3.99-8.61-10.27-8.7-17.33-.05-3.92,1.15-7.76,3.26-11.18.67-1.08,1.14-2,.1-3.24-7.15-8.56-5.7-19.45,1.41-27.47,1.07-1.21,1.6-1.92.62-3.65-5.78-10.1-1.6-21.6,6.98-27.51.96-.66,1.19-1.26.73-2.28-3.02-6.59-2.03-12.85,1.69-18.82,2.3-3.7,5.24-6.73,9.55-8.09,1.01-.32,1.32-.84,1.13-1.91-1.94-11.18,6.16-20.74,14.55-23.22,1.31-.39,3.2.05,3.84-1.22.55-1.09-.07-2.72.22-4.02.85-3.8,2.23-7.42,4.78-10.46,4.33-5.17,9.54-8.62,16.63-8.33Zm53.67,201.13c1.71-1.32,3.44-2.61,5.11-3.96,5.9-4.77,11.99-9.26,18.63-12.98,8.25-4.63,17.16-7.34,26.44-8.92,7.43-1.27,14.87-1.48,22.32-.15,10.23,1.83,18.76,6.52,25.55,14.5,2.02,2.37,3.64,5.07,6,7.46-.15-1.35-.2-2.44-.4-3.5-.22-1.17-.59-2.3-.85-3.46-2.38-10.79-9-17.83-18.95-22.31-7.84-3.52-16.23-5.57-23.96-9.33-.81-.39-1.42-.1-2.13.2-7.18,3.06-14.65,5.32-22.04,7.79-5.37,1.8-10.66,3.74-15.46,6.82-10.31,6.61-16.33,16.42-20.59,27.56.02.19.05.37.07.56.09-.1.17-.19.26-.29Zm-41.43-83.16c-.65.44-.88.52-1,.69-1.2,1.54-2.45,3.05-3.57,4.65-7.78,11.09-10.21,23.78-10.87,36.97-.23,4.59.57,9.13.91,13.69.31,4.16.96,8.26,1.7,12.35.87,4.79,2.23,9.45,3.63,14.11.23.76.45,1.63-.8,1.55-2.49-.15-4.9.65-7.4.54-1.25-.05-1.85-.61-2.09-1.61-1.68-7.08-2.79-14.27-3.23-21.52-.28-4.53.12-9.1-.08-13.64-.09-2.02,1.14-4.34-.21-5.98-1.3-1.59-3.79-1.39-5.72-2.07-2.7-.95-5.55-1.22-8.33-.33-7.93,2.53-11.69,9.37-12.02,17.7-.16,3.95.75,7.85,1.35,11.75,1.15,7.56,3.68,14.54,8.37,20.65,2.3,3,4.79,5.75,8.64,6.87,2.31.67,4.62.21,6.93.39.69.05,1.36-.26,1.59.97,2.22,11.81,6.27,22.99,11.61,33.74,3.44,6.91,7.33,13.6,12.14,19.56,5.4,6.69,11.15,13.08,18.28,18.23,8.3,5.99,16.88,11.38,26.2,15.53,8.44,3.75,17.26,6.51,26.32,8.37,6.23,1.28,12.52,2.6,18.87,2.66,6.88.06,13.78.03,20.64-1.23,9.29-1.7,18-4.85,26.07-9.68,10.17-6.09,17.85-14.69,23.92-24.77,6.98-11.6,12.14-23.98,16.24-36.88,3.8-11.96,6.89-24.09,9.71-36.3,1.6-6.95,2.77-13.98,3.2-21.09.37-6.05-.44-12.07-1.68-18.01-1.94-9.32-4.86-18.27-9.9-26.52-4.68,5.14-10.8,6.34-17.14,6.71-6.62.39-12.94-1.32-19.12-3.47-5.23-1.81-10.3-3.98-15.11-6.77-.5-.29-1.42-1.72-2.01.13-1.04,3.21-2.11,6.42-4.52,9.11,2.71.42,4.86-.7,7.12-1.1.88-.15,1.89.16,2.76-.67,1.33-1.26,3.11-.53,3.26,1.31.08,1,.39,2.11-.35,3.06-.75.96-.34,1.61.66,1.99,3.92,1.48,7.64,3.37,11.06,5.78,7.48,5.28,12.69,12.22,15.54,20.99,1.89,5.84,2.77,11.78,3.26,17.89.51,6.35.17,12.68.39,19.01.06,1.58-.53,2.18-2.21,1.57-1.72-.62-3.34-1.34-4.73-2.54-1.39-1.19-2.76-2.4-4.32-3.76-.45,5.73-1.35,11.04-2.4,16.35-2.45,12.44-6.73,24.1-14.39,34.31-5.76,7.66-13.19,13.17-22.22,16.52-4.47,1.66-9.03,2.77-13.79,3.29-6.7.72-13.31.53-19.88-.95-6.05-1.36-11.67-3.79-16.99-6.92-4.61-2.71-8.85-5.97-12.43-9.89-5.47-5.99-9.78-12.8-12.82-20.38-2.78-6.91-4.69-14-5.46-21.45-.3-2.88-.14-5.79-.53-8.64-.83-.08-1.27.4-1.81.62-2.28.94-4.05,2.75-6.5,3.48-2.03.6-3.05.11-3.45-1.84-.33-1.59-.78-3.2-.77-4.79.02-6.45-.55-12.9.9-19.32,2.07-9.18,5.84-17.54,11.79-24.79,7.68-9.36,17.81-14.94,29.35-18.13.98-.27,1.11-.53.67-1.48-1.24-2.68,1.06-6.5,4.1-6.9,0,.31.05.61,0,.9-.62,2.81-.19,3.49,2.29,4.62,3.7,1.68,7.31,1.25,10.84-.31.96-.43,1.64-.31,2.5,0,2.83,1.06,5.52,2.48,8.5,3.15,5.11,1.15,10.24,1.22,15.4.5,5.48-.77,8.92-2.81,10.96-8.29,2.24-6.01.14-11.34-2.81-16.4-2.39-4.11-5.24-7.94-7.65-12.04-2.19-3.72-4.63-7.41-4.52-12.02.03-1.11-.85-1.38-1.62-1.58-2.14-.56-4.29-1.21-6.47-1.48-4.27-.52-8.36.13-12.08,2.54-.63.41-.72.71-.68,1.39.12,2.08-.22,4.1-.79,6.11-1.65,5.82-4.3,11.16-7.46,16.31-5.6,9.15-13.4,15.67-23.12,20-5.93,2.64-12.14,4.03-18.65,4.66-8.19.79-15.69-.22-22.67-4.96-6.12-4.15-9.07-9.74-9.27-16.97-.05-1.79,0-3.57,0-5.8Zm98.71,154.1c5.97-.13,14.16-2.07,21.55-6.75,6.09-3.85,10.94-8.95,11.97-16.32,1.2-8.55-1.21-16.2-7.85-22.11-5.12-4.56-11.09-7.16-17.97-7.85-4.28-.42-8.29-.08-11.88,2.44-3.04,2.13-4.03,5.15-3.59,8.76.09.77-.16,1.66-.88,1.96-.86.37-1.35-.51-1.76-1.08-4.59-6.31-10.93-9.83-18.38-11.55-6.86-1.59-13.72-1.9-20.42.7-4.3,1.67-6.36,6.21-5.42,10.83,1.35,6.7,4.17,12.63,8.09,18.23,4.53,6.47,10.36,11.4,16.93,15.54,8.19,5.16,17.3,7.17,29.61,7.2Zm-95.29-168.99c3.68-5.83,7.93-10.69,14.67-13.05,6.24-2.19,12.71-3.2,19.18-3.93,6.93-.78,13.93-1.24,20.95-1.1,5.71.11,11.43-.22,17.02,1.36,1.75.5,3.4,1.34,5.37.71,5.71-1.83,11.55-1.23,17.37-.74,3.08.26,6.08,1.08,9.24-.22,2.21-.91,4.73-1.1,7.23-1.1,9.12.02,18.19.24,27.28,1.29,5.25.61,10.45,1.6,15.72,2.08.71.06,1.6.67,2.07.06.49-.64.13-1.58-.24-2.35-1.17-2.52-3.32-4.05-5.61-5.39-5.85-3.43-12.31-5.28-18.79-6.95-9.62-2.47-19.47-3.72-29.34-4.57-6.66-.57-13.35-.68-20.03-.96-6.27-.26-12.51.54-18.77.47-2.8-.03-5.58.27-8.29.61-6.69.84-13.41,1.59-20.02,3.04-8.46,1.86-16.81,3.95-24.65,7.79-4.22,2.07-7.21,4.93-8.42,9.63-1.13,4.37-2.07,8.74-1.94,13.33Z"/>
        <path class="cls-1" d="m177.77,303.4c-12.31-.03-21.42-2.03-29.61-7.2-6.56-4.14-12.4-9.06-16.93-15.54-3.92-5.6-6.74-11.53-8.09-18.23-.93-4.62,1.12-9.16,5.42-10.83,6.7-2.6,13.55-2.29,20.42-.7,7.46,1.72,13.79,5.25,18.38,11.55.41.56.91,1.45,1.76,1.08.72-.31.97-1.19.88-1.96-.44-3.6.55-6.63,3.59-8.76,3.59-2.52,7.6-2.86,11.88-2.44,6.88.68,12.85,3.29,17.97,7.85,6.64,5.91,9.05,13.56,7.85,22.11-1.04,7.36-5.88,12.46-11.97,16.32-7.38,4.67-15.58,6.62-21.55,6.75Z"/>
        <path class="cls-2" d="m120.16,232.18c4.26-11.13,10.28-20.94,20.59-27.56,4.8-3.08,10.09-5.02,15.46-6.82,7.39-2.47,14.86-4.73,22.04-7.79.72-.3,1.33-.59,2.13-.2,7.73,3.76,16.12,5.81,23.96,9.33,9.95,4.47,16.57,11.52,18.95,22.31.26,1.16.63,2.3.85,3.46.2,1.06.25,2.15.4,3.5-2.36-2.39-3.99-5.09-6-7.46-6.78-7.98-15.32-12.67-25.55-14.5-7.46-1.33-14.9-1.12-22.32.15-9.28,1.58-18.18,4.29-26.44,8.92-6.63,3.72-12.73,8.21-18.63,12.98-1.68,1.36-3.41,2.64-5.11,3.96-.1-.11-.21-.2-.33-.27Z"/>
        <path class="cls-2" d="m120.5,232.45c-.09.1-.17.19-.26.29-.02-.19-.05-.37-.07-.56.12.08.23.17.33.27Z"/>
        <path class="cls-3" d="m53.58,218.68c.13,3.72-.37,7.09-1.84,10.27-.41.88-.91,1.98-2.12,1.59-.9-.29-.9-1.33-1.01-2.21-.68-5.27-.73-10.63-2.27-15.8-.87-2.9-1.92-5.67-3.68-8.13-1.09-1.53-1.88-3.2-2.61-4.89-.73-1.7-.04-2.51,1.77-2.63,2.46-.16,4.17,1.21,5.62,2.85,3.42,3.87,4.94,8.58,5.71,13.59.28,1.86.59,3.71.42,5.35Z"/>
      </g>
    </g>
  </g>
</svg>