<?xml version="1.0" encoding="UTF-8"?>
<svg id="Layer_2" data-name="Layer 2" xmlns="http://www.w3.org/2000/svg" viewBox="0 0 214.12 302.63">
  <defs>
    <style>
      .cls-1 {
        fill: #f9f8f5;
      }

      .cls-2 {
        fill: #ef4d47;
      }

      .cls-3 {
        fill: #1b1b19;
      }
    </style>
  </defs>
  <g id="Layer_1-2" data-name="Layer 1">
    <g>
      <g id="usGIUK">
        <g>
          <path class="cls-1" d="m107,250.58c2.13-.13,4.48-.13,6.84-.31,4.73-.36,9.28-1.33,13.84-2.58,11.18-3.08,20.56-9.15,28.83-17.03,7.43-7.08,13.3-15.4,18.07-24.46,6.55-12.45,10.66-25.74,13.22-39.53.13-.68.27-.99,1.01-1.23,3.87-1.22,7.29-3.24,9.95-6.34,3.32-3.88,4.64-8.5,3.95-13.48-.21-1.49.04-2.21,1.11-2.86,8.67-5.21,9.96-16.26,4.92-24.01-.47-.72-.18-.72.24-1.17,4.27-4.54,6.07-9.79,4.65-16.04-.9-3.93-3.13-6.98-5.96-9.65-.67-.63-.75-1.01-.31-1.77.95-1.63,1.52-3.45,1.71-5.3.81-7.89-2.34-13.87-9.02-18.03-.8-.5-1.27-.87-.88-1.91.54-1.44.26-3,.43-4.48.72-6.19-4.85-14-11.24-15.62-1.1-.28-1.32-.88-1.29-1.91.06-2.44-.5-4.8-1.67-6.92-3.16-5.72-7.95-8.95-14.6-9.1-1.04-.02-1.83.15-2.12-1.45-.89-4.91-3.41-8.83-7.98-11.21-3.26-1.69-6.61-2.87-10.36-2.03-2.07.47-4.25,1.22-4.98-1.91-.07-.31-.52-.51-.73-.81-4.56-6.7-15.23-8.76-21.83-3.54-.63.5-.89.31-1.33-.12C117.38,1.67,112.5-.22,106.62.02c-4.9.2-8.65,2.52-12.05,5.61-.82.75-.99.72-1.76.15-3.54-2.6-7.68-3.32-11.83-2.62-5.5.93-9.66,4.02-11.99,9.26-.3.67-.63.84-1.32.52-1.87-.86-3.87-.72-5.86-.77-7.41-.18-14.24,6.17-15.48,13.29-.16.92-.42,1.07-1.2,1.04-2.23-.1-4.45.02-6.62.6-7.07,1.89-11.45,8.25-11.63,15.31-.02.88-.16,1.25-1.14,1.56-8.36,2.67-13.87,11.56-10.94,20.64.28.86.08,1.07-.54,1.43-2.48,1.43-4.48,3.42-6.11,5.74-3.88,5.52-4.35,11.49-1.94,17.7.4,1.03.39,1.62-.49,2.39-3.29,2.86-5.06,6.7-5.56,10.88-.62,5.14.94,9.83,4.63,13.63.7.72.9,1.24.32,2.14-1.38,2.13-2.2,4.55-2.41,7.02-.6,7.27,2.1,13.06,8.38,16.98.62.39.88.8.71,1.46-1.04,4.15.29,7.88,2.32,11.35,2.44,4.16,6.3,6.59,10.87,7.92.93.27,1.44.51,1.62,1.67.4,2.65,1.14,5.26,1.72,7.88,2.91,12.99,7.25,25.44,13.92,37.02,5.67,9.82,12.53,18.62,21.46,25.76,6.52,5.22,13.72,9.1,21.62,11.74,6.98,2.34,14.14,3.4,21.72,3.29Z"/>
          <path class="cls-3" d="m208.99,117.59c4.27-4.54,6.07-9.79,4.65-16.04-.9-3.93-3.13-6.98-5.96-9.65-.67-.63-.75-1.01-.31-1.77.95-1.63,1.52-3.45,1.71-5.3.81-7.89-2.34-13.87-9.02-18.03-.8-.5-1.27-.87-.88-1.91.54-1.44.26-3,.43-4.48.72-6.19-4.85-14-11.24-15.62-1.1-.28-1.32-.88-1.29-1.91.06-2.44-.5-4.8-1.67-6.92-3.16-5.72-7.95-8.95-14.6-9.1-1.04-.02-1.83.15-2.12-1.45-.89-4.91-3.41-8.83-7.98-11.21-3.26-1.69-6.61-2.87-10.36-2.03-2.07.47-4.25,1.22-4.98-1.91-.07-.31-.52-.51-.73-.81-4.56-6.7-15.23-8.76-21.83-3.54-.63.5-.89.31-1.33-.12C117.38,1.67,112.5-.22,106.62.02c-4.9.2-8.65,2.52-12.05,5.61-.82.75-.99.72-1.76.15-3.54-2.6-7.68-3.32-11.83-2.62-5.5.93-9.66,4.02-11.99,9.26-.3.67-.63.84-1.32.52-1.87-.86-3.87-.72-5.86-.77-7.41-.18-14.24,6.17-15.48,13.29-.16.92-.42,1.07-1.2,1.04-2.23-.1-4.45.02-6.62.6-7.07,1.89-11.45,8.25-11.63,15.31-.02.88-.16,1.25-1.14,1.56-8.36,2.67-13.87,11.56-10.94,20.64.28.86.08,1.07-.54,1.43-2.48,1.43-4.48,3.42-6.11,5.74-3.88,5.52-4.35,11.49-1.94,17.7.4,1.03.39,1.62-.49,2.39-3.29,2.86-5.06,6.7-5.56,10.88-.62,5.14.94,9.83,4.63,13.63.7.72.9,1.24.32,2.14-1.38,2.13-2.2,4.55-2.41,7.02-.6,7.27,2.1,13.06,8.38,16.98.62.39.88.8.71,1.46-1.04,4.15.29,7.88,2.32,11.35,1.84,3.13,4.48,5.28,7.62,6.72,13.97,38.62,38.22,87.41,57.31,123.66,11.89,22.58,44.2,22.58,56.09,0,11.77-22.35,25.5-49.46,37.57-76.02.65-1.14,1.29-2.3,1.9-3.47,3.37-6.4,6.09-13.03,8.29-19.83,3.16-7.55,6.08-14.91,8.68-21.96,2.75-1.23,5.2-2.96,7.22-5.31,3.32-3.88,4.64-8.5,3.95-13.48-.21-1.49.04-2.21,1.11-2.86,8.67-5.21,9.96-16.26,4.92-24.01-.47-.72-.18-.72.24-1.17Z"/>
          <path class="cls-1" d="m130.72,85.44c-3.01.36-6.04-.03-9.08.36-2.47.31-4.13,1.66-5.84,3.07-.57.46-1.05.61-1.73.73-2.52.46-5.02,0-7.52-.06-1.46-.03-2.88.31-4.4.15-1.39-.15-2.55-.46-3.37-1.4-2.18-2.49-5.14-2.49-8.01-2.73-1.64-.14-3.3-.05-4.94-.02-4.5.09-8.99-.74-13.48-.35-6.21.54-12.5.2-18.62,1.79-2.85.74-5.27,2.27-7.68,3.91.45-6.26,4.16-11.03,10.19-13,5.59-1.82,11.36-2.85,17.17-3.77,5.59-.89,11.22-1.24,16.84-1.81,8.43-.85,16.87-.81,25.31-.66,5.54.1,11.08.51,16.59,1.09,9.36.99,18.66,2.37,27.63,5.41,5.91,2,8.93,6.28,9.84,12.54-2.48-1.63-4.85-3.1-7.63-3.74-2.28-.52-4.6-.75-6.9-1.08-3.63-.52-7.29-.13-10.91-.5-.22,0-.45,0-.68,0-1.62-.01-3.24-.03-4.85-.04-2.62.04-5.26.08-7.9.12Z"/>
          <path class="cls-2" d="m93.15,182.71c6.33,0,10.09,1.23,12.43,5.48,1.07,1.96,1.35,1.9,2.52-.04,2-3.31,5.01-4.58,8.71-4.7,4.29-.15,8.42.13,12.37,2.2,6.84,3.58,7.89,10.81,4.17,16.59-4.62,7.18-11.61,10.75-19.56,12.33-12.21,2.42-22.66-1.29-31.17-10.36-2.09-2.23-3.25-5.06-3.63-8.01-.38-2.95.95-5.59,2.88-7.8,3.46-3.97,7.97-5.62,11.28-5.69Z"/>
          <path class="cls-1" d="m106.49,96.9c2.15.04,4.29-.08,6.41.65.79.27,1.06.57,1.23,1.25,1.22,4.68,2.81,9.23,5.13,13.49,1.72,3.16,3.6,6.22,5.62,9.21,1.94,2.87,2.51,6.16.25,9.13-.96,1.26-2.02,2.04-3.6,2.37-4.34.92-8.21,3.2-12.46,4.41-1.07.3-1.86.37-2.94-.09-3.72-1.56-7.31-3.49-11.28-4.34-1.76-.38-3.39-.49-4.76-2.08-2.56-2.99-1.74-6.75-.36-9.03,2.02-3.34,4.19-6.57,5.98-10.05,2.1-4.08,3.95-8.27,4.87-12.78.36-1.77,1.31-2.15,2.8-2.13,1.04.01,2.08,0,3.12,0Z"/>
          <path class="cls-1" d="m106.23,151.88c9.84-.07,18.16,1.7,26.09,5.2,2.31,1.02,4.54,2.24,6.59,3.73,1.08.78,1.35,2.08,1.91,3.18.32.63-.23.81-.8.76-2.68-.25-5.31.37-7.98.37-17.23,0-34.47.03-51.7-.05-1.92,0-3.86-.33-5.8-.34-.61,0-.85-.15-.56-.89.58-1.46,1.48-2.62,2.77-3.48,4.73-3.16,10.01-5.05,15.42-6.57,4.96-1.4,10.03-2.11,14.06-1.9Z"/>
          <path class="cls-2" d="m130.72,85.44c2.64-.04,5.27-.08,7.9-.12-2.64.04-5.27.08-7.9.12Z"/>
          <path class="cls-2" d="m105.02,240.14c.32,0,.65,0,.96,0-.33,0-.64,0-.96,0Z"/>
          <path class="cls-2" d="m108.67,240.12c.34,0,.67,0,1,0-.34,0-.67,0-1,0Z"/>
          <path class="cls-2" d="m143.46,85.36c.23,0,.46,0,.68,0-.23,0-.46,0-.68,0Z"/>
        </g>
      </g>
      <path class="cls-1" d="m105.02,240.14c-3.62.37-7.18-.31-10.68-.99-9.61-1.85-17.99-6.4-25.54-12.48-7.5-6.03-13.11-13.68-18.08-21.84-4.66-7.65-7.86-15.92-10.6-24.4-1.94-6.01-3.36-12.15-4.45-18.35-1.36-7.79-1.51-15.69-1.07-23.55.52-9.1,3.06-17.8,6.69-26.16.24-.56.47-1.29,1.37-1.23,1.06.07.57.89.69,1.39,1.03,4.28,2.16,8.56,4.46,12.32,1.8,2.94,4.59,4.83,8.17,5.43,4.37.73,8.71.34,13.03-.17,4.47-.52,8.84-1.53,13.13-3.38-.12,2.68.96,4.78,2.54,6.71-5.86,1.27-11.19,3.49-16.13,6.68-8.28,5.36-13.04,13.02-15.01,22.62-1.11,5.39-.65,10.64.44,15.92.22,1.08.73,1.36,1.7.64,2.33-1.71,4.24-3.78,5.8-6.41.82,2.24.8,4.54,1.23,6.74,1.63,8.34,4.44,16.22,8.9,23.46,4.64,7.52,10.91,13.31,18.91,17.13,6.23,2.98,12.84,4.05,19.67,3.53,8.22-.62,15.73-3.35,22.18-8.55,9.14-7.35,14.48-17.12,17.67-28.22,1.16-4.05,2.19-8.12,2.58-12.33.05-.57.29-1.12.44-1.66,1.94,2.12,3.33,4.76,5.86,6.35.91.57,1.48.94,1.8-.63,1.1-5.29,1.32-10.53.39-15.92-1.34-7.71-4.7-14.23-10.4-19.49-5.18-4.78-11.43-7.63-18.21-9.36-.23-.06-.48-.05-.71-.12-.28-.09-.54-.25-.93-.43,1.29-1.71,1.99-3.69,2.29-5.79.13-.9.42-.53.93-.3,3.99,1.77,8.23,2.49,12.54,3.05,2.68.35,5.33.22,7.99.29,6.6.17,11.13-2.91,13.75-8.89,1.37-3.13,2.47-6.36,2.94-9.76.05-.34-.07-.72.5-.78.63-.06,1,.16,1.23.76,1,2.55,2.16,5.04,3,7.64,1.55,4.81,2.63,9.76,3.26,14.75.59,4.67,1.05,9.39.8,14.12-.68,12.65-3.1,24.96-7.32,36.91-3.7,10.49-8.66,20.3-15.46,29.17-4.7,6.14-10.14,11.44-16.54,15.76-7.15,4.83-15.02,7.93-23.55,9.23-2.5.38-5.06.4-7.58.58-.33,0-.67,0-1,0-.9,0-1.8.01-2.69.02-.31,0-.64,0-.96,0Z"/>
    </g>
  </g>
</svg>